<?xml version="1.0" standalone="no"?>
<!DOCTYPE svg PUBLIC "-//W3C//DTD SVG 20010904//EN"
 "http://www.w3.org/TR/2001/REC-SVG-20010904/DTD/svg10.dtd">
<svg version="1.0" xmlns="http://www.w3.org/2000/svg"
 width="300.000000pt" height="101.000000pt" viewBox="0 0 300.000000 101.000000"
 preserveAspectRatio="xMidYMid meet">
<metadata>
Created by potrace 1.10, written by Peter Selinger 2001-2011
</metadata>
<g transform="translate(0.000000,101.000000) scale(0.100000,-0.100000)"
fill="#000000" stroke="none">
<path d="M890 934 c-41 -8 -104 -16 -140 -19 -36 -2 -67 -5 -70 -5 -3 0 4 -6
14 -12 11 -6 62 -13 114 -16 88 -5 94 -6 103 -30 9 -23 6 -93 -5 -110 -8 -13
-64 -352 -69 -417 -1 -16 -6 -35 -9 -41 -10 -15 -11 -81 -2 -131 6 -42 6 -43
-22 -44 -16 -1 -41 -1 -56 0 -16 0 -28 -3 -28 -9 0 -15 67 -12 103 4 18 8 86
19 152 26 163 15 195 21 195 33 0 6 -28 8 -79 4 -63 -5 -82 -3 -91 8 -10 12
-9 21 6 42 41 61 55 108 55 176 0 58 -5 80 -36 140 -19 40 -35 76 -35 81 0 5
-11 23 -24 41 -21 27 -23 37 -15 76 4 24 8 68 9 97 0 62 -3 60 118 76 l87 12
-32 17 c-39 21 -135 21 -243 1z m90 -391 c27 -59 37 -90 30 -97 -7 -7 -10 -6
-10 2 0 14 -52 42 -80 42 -11 0 -20 5 -20 12 0 28 25 128 32 128 4 0 25 -39
48 -87z m-14 -104 c16 -18 19 -34 16 -102 -3 -98 -24 -151 -63 -155 -15 -2
-32 5 -44 18 -18 20 -18 22 4 89 12 38 22 77 21 88 -4 34 0 52 16 67 20 21 27
20 50 -5z"/>
<path d="M165 923 l-51 -4 -11 -47 c-6 -28 -7 -51 -2 -56 13 -15 11 -26 -5
-26 -8 0 -18 -5 -22 -11 -5 -9 12 -10 62 -4 38 4 92 9 119 11 28 1 82 5 120 8
39 2 78 1 85 -5 9 -5 10 -9 3 -9 -19 0 -93 -121 -223 -365 -104 -195 -121
-234 -117 -262 4 -25 2 -33 -9 -33 -8 0 -14 -5 -14 -11 0 -8 11 -9 31 -5 17 3
38 6 45 6 24 0 16 47 -12 69 -17 13 -21 21 -12 21 24 0 50 -36 48 -67 -3 -45
-1 -49 18 -26 11 15 32 24 62 27 25 3 78 10 119 15 41 6 77 8 81 6 4 -3 35 -7
69 -9 70 -6 77 1 87 78 l6 44 -38 11 c-47 13 -115 13 -212 1 -82 -11 -101 -18
-81 -31 8 -5 62 -6 120 -2 113 6 154 1 162 -20 13 -34 -9 -42 -114 -39 -56 2
-112 8 -125 12 -15 6 -24 5 -28 -3 -3 -9 -5 -9 -5 1 -1 7 -15 12 -36 12 -30 0
-35 -3 -35 -22 0 -14 3 -18 8 -12 8 14 46 22 50 11 6 -19 -1 -23 -38 -25 -35
-3 -40 0 -40 20 0 17 -3 19 -12 10 -13 -13 -38 2 -38 23 0 21 214 413 273 502
20 30 57 46 57 25 0 -5 -22 -46 -50 -90 -48 -80 -66 -113 -137 -256 -35 -70
-46 -116 -28 -122 6 -2 19 17 29 44 11 26 34 72 51 102 42 73 51 90 64 120 13
29 18 38 87 145 47 72 94 170 94 195 0 5 -15 17 -32 27 -27 14 -62 18 -203 19
-93 1 -193 -1 -220 -3z m387 -44 c15 -8 18 -17 13 -37 -9 -38 -31 -52 -64 -42
-30 8 -67 28 -93 49 -16 12 -21 12 -37 -3 -15 -14 -44 -19 -125 -23 -102 -6
-106 -5 -106 15 0 47 19 52 211 52 110 0 188 -4 201 -11z"/>
<path d="M1530 869 c-57 -10 -139 -46 -176 -77 -47 -39 -92 -112 -109 -175
-26 -97 -18 -252 17 -329 37 -80 96 -140 171 -173 82 -37 240 -47 333 -21 171
49 257 176 257 381 0 249 -123 382 -368 399 -38 3 -95 0 -125 -5z m218 -23
c136 -37 230 -135 247 -258 13 -96 13 -122 3 -186 -16 -105 -53 -168 -142
-240 -32 -26 -132 -54 -204 -57 -168 -7 -297 59 -362 186 -49 94 -50 266 -4
369 28 63 101 141 151 162 94 38 222 48 311 24z"/>
<path d="M1545 700 c-76 -38 -112 -131 -102 -266 9 -111 49 -171 133 -194 91
-26 178 13 213 95 22 51 26 194 7 252 -38 113 -150 164 -251 113z m155 -22
c67 -35 85 -78 85 -203 -1 -84 -4 -107 -23 -142 -27 -52 -69 -75 -133 -75 -95
0 -146 51 -161 163 -29 204 86 331 232 257z"/>
<path d="M2160 475 l0 -385 110 0 110 0 0 208 c0 137 -4 202 -10 192 -5 -8
-10 -89 -10 -180 0 -91 -4 -169 -8 -175 -10 -14 -30 -18 -90 -17 -29 0 -59 6
-67 12 -11 9 -14 60 -15 253 -1 133 -2 288 -3 345 -1 81 2 105 13 112 8 6 50
10 93 10 63 0 80 -3 97 -20 10 -10 70 -97 133 -192 101 -152 159 -229 146
-191 -2 6 -65 102 -139 212 l-135 200 -112 1 -113 0 0 -385z"/>
<path d="M2671 684 c-1 -97 2 -191 6 -208 5 -20 10 41 13 169 l5 200 78 3 c53
2 84 -1 94 -10 14 -11 15 -54 10 -357 -4 -208 -10 -348 -16 -354 -6 -6 -44
-10 -86 -10 -88 0 -92 3 -163 107 -128 188 -201 286 -214 286 -5 0 55 -94 133
-210 l142 -210 114 0 113 0 0 385 0 385 -113 0 -113 0 -3 -176z"/>
</g>
</svg>
